<?xml version="1.0" encoding="utf-8"?>
<!-- Generator: Adobe Illustrator 22.0.0, SVG Export Plug-In . SVG Version: 6.00 Build 0)  -->
<svg version="1.1" id="Layer_1" xmlns="http://www.w3.org/2000/svg" xmlns:xlink="http://www.w3.org/1999/xlink" x="0px" y="0px"
	 viewBox="0 0 70 57" style="enable-background:new 0 0 70 57;" xml:space="preserve">
<g>
	<linearGradient id="SVGID_1_" gradientUnits="userSpaceOnUse" x1="9.0003" y1="27.5585" x2="43.5271" y2="27.5585">
		<stop  offset="0" style="stop-color:#0052D4"/>
		<stop  offset="1" style="stop-color:#5F79FF"/>
	</linearGradient>
	<path style="fill:url(#SVGID_1_);" d="M12,44.5c-0.1,0.1-0.2,0.1-0.3,0.2c-2.5,1.1-3.7-0.9-1.8-3l24.9-29c0,0,8.7-10,8.7,9.1v14.6
		c0,2.2-1.1,3.2-2.4,1.7c-0.1-0.2-0.2-0.3-0.3-0.5l-5.2-7.9c-0.1-0.2-0.2-0.4-0.3-0.6c-0.7-0.6-1.7-0.8-2.5-0.5
		c-0.1,0-0.2,0.1-0.3,0.2L12,44.5z"/>
	<g>
		<path style="fill:#2188F7;" d="M33.5,31.8l-8.5,9.9c-1.9,2.1-0.7,4.1,1.8,3c0.1,0,0.2-0.1,0.3-0.2l8.2-5.3L33.5,31.8z"/>
		<path style="fill:#2188F7;" d="M50,12.7L46,17.4c0.2,1.8,0.2,3.4,0.2,4.4v8.4l1.6-1.3c0.1-0.1,0.2-0.1,0.3-0.2
			c0.9-0.4,1.9-0.2,2.5,0.5c0.2,0.2,0.3,0.4,0.3,0.6l5.2,7.9c0,0.2,0.2,0.4,0.3,0.5c1.3,1.4,2.4,0.4,2.4-1.7V21.8
			C58.7,2.8,50,12.7,50,12.7z"/>
	</g>
	<path style="fill:#2188F7;" d="M12,44.5c-0.1,0.1-0.2,0.1-0.3,0.2c-2.5,1.1-3.7-0.9-1.8-3l24.9-29c0,0,8.7-10,8.7,9.1v14.6
		c0,2.2-1.1,3.2-2.4,1.7c-0.1-0.2-0.2-0.3-0.3-0.5l-5.2-7.9c-0.1-0.2-0.2-0.4-0.3-0.6c-0.7-0.6-1.7-0.8-2.5-0.5
		c-0.1,0-0.2,0.1-0.3,0.2L12,44.5z"/>
</g>
</svg>
